<svg width="45" height="45" viewBox="0 0 45 45" fill="none" xmlns="http://www.w3.org/2000/svg">
<g id="quotation marks 1" clip-path="url(#clip0_1_797)">
<g id="Group">
<g id="Group_2">
<path id="Vector" d="M15.5772 3.46167L5.19239 3.46167C3.74989 3.46167 2.52402 3.96653 1.5142 4.97597C0.50486 5.9856 0 7.21147 0 8.65407L0 19.0385C0 20.481 0.504576 21.7067 1.5142 22.7161C2.52392 23.7255 3.75017 24.2305 5.19239 24.2305H11.25C11.971 24.2305 12.5841 24.483 13.089 24.9877C13.5938 25.4921 13.8461 26.1054 13.8461 26.8269V27.6918C13.8461 29.603 13.1699 31.2341 11.8179 32.5865C10.4658 33.9382 8.8343 34.6144 6.92293 34.6144H5.19239C4.72333 34.6144 4.31783 34.7861 3.97513 35.1284C3.63272 35.4707 3.46137 35.8765 3.46137 36.3453L3.46137 39.8072C3.46137 40.2752 3.63272 40.6818 3.97513 41.0242C4.31812 41.3664 4.72324 41.5383 5.19239 41.5383H6.92303C8.79821 41.5383 10.5876 41.1726 12.2914 40.4427C13.9951 39.7127 15.4689 38.7253 16.713 37.4813C17.9567 36.2371 18.9439 34.7636 19.674 33.0598C20.404 31.3561 20.7692 29.5668 20.7692 27.6919V8.65369C20.7692 7.21109 20.2643 5.98531 19.2549 4.97588C18.2454 3.96644 17.0193 3.46167 15.5772 3.46167Z" fill="#BAA266"/>
<path id="Vector_2" d="M43.4855 4.97597C42.4761 3.96653 41.2502 3.46167 39.8077 3.46167L29.4233 3.46167C27.9808 3.46167 26.7549 3.96653 25.7455 4.97597C24.7361 5.98569 24.2314 7.21147 24.2314 8.65407V19.0385C24.2314 20.481 24.7361 21.7067 25.7455 22.7161C26.7549 23.7255 27.9809 24.2305 29.4233 24.2305H35.4809C36.2018 24.2305 36.8154 24.483 37.3202 24.9877C37.8245 25.4924 38.0774 26.1054 38.0774 26.8269V27.6918C38.0774 29.603 37.4012 31.2341 36.0489 32.5865C34.6968 33.9382 33.0657 34.6144 31.1542 34.6144H29.4233C28.9546 34.6144 28.5487 34.7861 28.2064 35.1284C27.8638 35.4707 27.6922 35.8765 27.6922 36.3453L27.6922 39.8072C27.6922 40.2752 27.8638 40.6818 28.2064 41.0242C28.5486 41.3664 28.9545 41.5383 29.4233 41.5383H31.1542C33.0291 41.5383 34.8184 41.1726 36.5224 40.4427C38.2258 39.7127 39.6994 38.7253 40.9435 37.4813C42.1876 36.2371 43.1754 34.7633 43.905 33.0598C44.6349 31.3564 45.0002 29.5668 45.0002 27.6919V8.65369C45 7.21109 44.4956 5.98531 43.4855 4.97597Z" fill="#BAA266"/>
</g>
</g>
</g>
<defs>
<clipPath id="clip0_1_797">
<rect width="45" height="45" fill="white"/>
</clipPath>
</defs>
</svg>
