<svg width="9" height="9" viewBox="0 0 9 9" fill="none" xmlns="http://www.w3.org/2000/svg">
<g id="ic:round-check">
<path id="Vector" d="M3.26849 5.80225L2.04234 4.5761C1.97627 4.51003 1.88666 4.47291 1.79322 4.47291C1.69979 4.47291 1.61018 4.51003 1.54411 4.5761C1.47804 4.64217 1.44092 4.73178 1.44092 4.82521C1.44092 4.87148 1.45003 4.91729 1.46774 4.96003C1.48544 5.00278 1.51139 5.04162 1.54411 5.07433L3.02114 6.55136C3.15895 6.68917 3.38156 6.68917 3.51937 6.55136L7.25789 2.81285C7.32396 2.74678 7.36107 2.65717 7.36107 2.56373C7.36107 2.47029 7.32396 2.38068 7.25789 2.31461C7.19182 2.24854 7.10221 2.21143 7.00877 2.21143C6.91533 2.21143 6.82572 2.24854 6.75965 2.31461L3.26849 5.80225Z" fill="white"/>
</g>
</svg>
