<svg width="14" height="14" viewBox="0 0 14 14" fill="none" xmlns="http://www.w3.org/2000/svg">
<path d="M7 9.625C8.44987 9.625 9.625 8.44987 9.625 7V2.625C9.625 1.17513 8.44987 0 7 0C5.55013 0 4.375 1.17513 4.375 2.625V7C4.375 8.44987 5.55013 9.625 7 9.625Z" fill="#4D4D56" fill-opacity="0.7"/>
<path d="M11.375 7V5.25H10.5V6.8635C10.5 8.5435 9.37825 10.0905 7.7315 10.4256C5.48275 10.8832 3.5 9.16913 3.5 7V5.25H2.625V7C2.625 9.11225 4.13087 10.8798 6.125 11.2866V13.125H4.375V14H9.625V13.125H7.875V11.2866C9.86912 10.8798 11.375 9.11225 11.375 7Z" fill="#4D4D56" fill-opacity="0.7"/>
</svg>
