<svg width="13" height="13" viewBox="0 0 13 13" fill="none" xmlns="http://www.w3.org/2000/svg">
<path d="M12.1285 3.23725C11.5472 2.24143 10.7587 1.45299 9.7629 0.87175C8.76688 0.290544 7.67959 0 6.50019 0C5.32091 0 4.23329 0.290544 3.23745 0.87175C2.24155 1.4529 1.4531 2.24135 0.871839 3.23725C0.290544 4.23321 0 5.32082 0 6.50002C0 7.67927 0.290633 8.76671 0.87175 9.76273C1.45299 10.7585 2.24143 11.547 3.23733 12.1283C4.23329 12.7095 5.32082 13 6.50007 13C7.67932 13 8.76697 12.7095 9.76287 12.1283C10.7587 11.5472 11.5471 10.7585 12.1283 9.76273C12.7095 8.7668 13 7.67921 13 6.50002C13 5.32071 12.7095 4.23306 12.1285 3.23725ZM7.5836 10.5625C7.5836 10.6414 7.55805 10.7064 7.50733 10.7571C7.45681 10.8078 7.39186 10.8332 7.31295 10.8332H5.68776C5.60879 10.8332 5.54387 10.8078 5.49309 10.7571C5.44228 10.7064 5.4169 10.6414 5.4169 10.5625V8.93734C5.4169 8.85843 5.44225 8.79348 5.49309 8.74278C5.54387 8.69215 5.60879 8.66681 5.68776 8.66681H7.31295C7.39186 8.66681 7.45681 8.69215 7.50733 8.74278C7.55805 8.79351 7.5836 8.85843 7.5836 8.93734V10.5625ZM9.64441 5.5605C9.5738 5.76928 9.49489 5.94006 9.40744 6.0726C9.32002 6.2052 9.19438 6.34065 9.03069 6.47882C8.86735 6.61705 8.73748 6.71586 8.64131 6.7752C8.54556 6.83434 8.40718 6.91492 8.22682 7.01636C8.04057 7.12346 7.88695 7.26318 7.76571 7.43535C7.64437 7.60741 7.58372 7.747 7.58372 7.85411C7.58372 7.93326 7.55817 7.99815 7.50742 8.0489C7.45681 8.09962 7.39189 8.12497 7.31295 8.12497H5.68785C5.60888 8.12497 5.54396 8.09962 5.49318 8.0489C5.44234 7.99815 5.41705 7.93326 5.41705 7.85411V7.54939C5.41705 7.17137 5.56506 6.81715 5.86133 6.48718C6.15759 6.15706 6.48344 5.91303 6.83897 5.75502C7.10962 5.63093 7.30154 5.50394 7.41436 5.37418C7.52737 5.24443 7.58378 5.07217 7.58378 4.85787C7.58378 4.67161 7.47789 4.50519 7.26626 4.35839C7.05463 4.21174 6.81359 4.1384 6.54267 4.1384C6.24919 4.1384 6.00664 4.20614 5.81476 4.34161C5.6285 4.47694 5.38595 4.73654 5.08687 5.12016C5.03609 5.18793 4.96554 5.22187 4.87524 5.22187C4.80753 5.22187 4.75391 5.20497 4.71445 5.17121L3.59733 4.32481C3.46758 4.22322 3.44502 4.10479 3.52957 3.96934C4.25188 2.7675 5.2985 2.16658 6.66955 2.16658C7.16055 2.16658 7.64022 2.28228 8.10851 2.51366C8.57678 2.74491 8.96758 3.07222 9.28083 3.49545C9.59369 3.91853 9.75054 4.37846 9.75054 4.875C9.75013 5.12325 9.71473 5.35166 9.64441 5.5605Z" fill="#C9C9C9"/>
</svg>
