<svg width="32" height="32" viewBox="0 0 32 32" fill="none" xmlns="http://www.w3.org/2000/svg">
<rect x="5" y="5" width="22" height="22" rx="11" fill="#E7CE92"/>
<rect x="0.5" y="0.5" width="31" height="31" rx="15.5" stroke="#E7CE92" stroke-opacity="0.4"/>
<path d="M14.625 19.1061L12.4562 16.9374C12.3394 16.8205 12.1809 16.7549 12.0156 16.7549C11.8503 16.7549 11.6918 16.8205 11.575 16.9374C11.4581 17.0543 11.3925 17.2128 11.3925 17.378C11.3925 17.4599 11.4086 17.5409 11.4399 17.6165C11.4712 17.6921 11.5171 17.7608 11.575 17.8186L14.1875 20.4311C14.4312 20.6749 14.825 20.6749 15.0687 20.4311L21.6812 13.8186C21.7981 13.7018 21.8637 13.5433 21.8637 13.378C21.8637 13.2128 21.7981 13.0543 21.6812 12.9374C21.5644 12.8205 21.4059 12.7549 21.2406 12.7549C21.0753 12.7549 20.9168 12.8205 20.8 12.9374L14.625 19.1061Z" fill="white"/>
</svg>
