<svg width="22" height="20" viewBox="0 0 22 20" fill="none" xmlns="http://www.w3.org/2000/svg">
<rect width="22" height="20" rx="1" fill="#F0F0F0"/>
<path d="M13.8391 12.268L10.6966 15.3655L7.55413 12.2675C7.35713 12.072 7.03713 12.072 6.84013 12.2675C6.64313 12.463 6.64313 12.7795 6.84013 12.9745L10.3396 16.424C10.5291 16.6115 10.8636 16.6125 11.0541 16.424L14.5536 12.974C14.7506 12.779 14.7506 12.462 14.5536 12.267C14.3561 12.0725 14.0361 12.0725 13.8391 12.268Z" fill="#BAA266"/>
<path d="M10.3396 11.9789C10.5291 12.1664 10.8636 12.1674 11.0541 11.9789L14.5536 8.52941C14.7506 8.33391 14.7506 8.01741 14.5536 7.82241C14.3566 7.62691 14.0366 7.62691 13.8396 7.82241L10.6966 10.9199L7.55413 7.82241C7.35713 7.62691 7.03713 7.62691 6.84013 7.82241C6.64313 8.01791 6.64313 8.33441 6.84013 8.52941L10.3396 11.9789Z" fill="#BAA266" fill-opacity="0.6"/>
<path d="M10.3396 7.53457C10.5291 7.72207 10.8636 7.72307 11.0541 7.53457L14.5536 4.08507C14.7506 3.88957 14.7506 3.57307 14.5536 3.37807C14.3566 3.18257 14.0366 3.18257 13.8396 3.37807L10.6966 6.47557L7.55413 3.37807C7.35713 3.18257 7.03713 3.18257 6.84013 3.37807C6.64313 3.57357 6.64313 3.89007 6.84013 4.08507L10.3396 7.53457Z" fill="#BAA266" fill-opacity="0.4"/>
</svg>
