<svg width="1112" height="802" viewBox="0 0 1112 802" fill="none" xmlns="http://www.w3.org/2000/svg">
<path d="M137.635 968.617L941.616 164.637M948.314 967.661L144.334 163.681M543.57 1138V1.00029M-26 562.524H1111M1111 569.5C1111 883.474 856.474 1138 542.5 1138C228.526 1138 -26 883.474 -26 569.5C-26 255.526 228.526 1 542.5 1C856.474 1 1111 255.526 1111 569.5ZM1057.58 569.501C1057.58 853.975 826.972 1084.59 542.498 1084.59C258.023 1084.59 27.4114 853.975 27.4114 569.501C27.4114 285.027 258.023 54.4146 542.498 54.4146C826.972 54.4146 1057.58 285.027 1057.58 569.501ZM1002.64 569.501C1002.64 823.633 796.63 1029.65 542.498 1029.65C288.367 1029.65 82.3522 823.633 82.3522 569.501C82.3522 315.37 288.367 109.355 542.498 109.355C796.63 109.355 1002.64 315.37 1002.64 569.501ZM948.509 569.498C948.509 793.731 766.733 975.508 542.5 975.508C318.267 975.508 136.49 793.731 136.49 569.498C136.49 345.265 318.267 163.488 542.5 163.488C766.733 163.488 948.509 345.265 948.509 569.498ZM890.372 569.501C890.372 761.621 734.628 917.366 542.507 917.366C350.387 917.366 194.642 761.621 194.642 569.501C194.642 377.38 350.387 221.636 542.507 221.636C734.628 221.636 890.372 377.38 890.372 569.501ZM827.351 569.499C827.351 726.819 699.817 854.352 542.497 854.352C385.177 854.352 257.644 726.819 257.644 569.499C257.644 412.179 385.177 284.645 542.497 284.645C699.817 284.645 827.351 412.179 827.351 569.499ZM774.039 569.499C774.039 697.373 670.377 801.036 542.503 801.036C414.629 801.036 310.966 697.373 310.966 569.499C310.966 441.625 414.629 337.963 542.503 337.963C670.377 337.963 774.039 441.625 774.039 569.499ZM715.865 569.501C715.865 665.253 638.244 742.875 542.492 742.875C446.74 742.875 369.118 665.253 369.118 569.501C369.118 473.75 446.74 396.128 542.492 396.128C638.244 396.128 715.865 473.75 715.865 569.501ZM660.133 569.501C660.133 634.467 607.467 687.133 542.501 687.133C477.534 687.133 424.868 634.467 424.868 569.501C424.868 504.534 477.534 451.868 542.501 451.868C607.467 451.868 660.133 504.534 660.133 569.501ZM599.545 569.501C599.545 601.007 574.005 626.547 542.5 626.547C510.995 626.547 485.455 601.007 485.455 569.501C485.455 537.996 510.995 512.456 542.5 512.456C574.005 512.456 599.545 537.996 599.545 569.501Z" stroke="url(#paint0_radial_1_27)" stroke-width="0.545081"/>
<defs>
<radialGradient id="paint0_radial_1_27" cx="0" cy="0" r="1" gradientUnits="userSpaceOnUse" gradientTransform="translate(542.5 569.5) rotate(89.9802) scale(861.264 861.264)">
<stop stop-color="#888888" stop-opacity="0.29"/>
<stop offset="0.765839" stop-color="#888888" stop-opacity="0"/>
</radialGradient>
</defs>
</svg>
